<svg width="189" height="45" viewBox="0 0 189 45" fill="none" xmlns="http://www.w3.org/2000/svg">
<g filter="url(#filter0_i_769_61)">
<path d="M1.568 32L1.568 27.268H9.884C10.2013 27.268 10.4627 27.2027 10.668 27.072C10.892 26.9413 11.06 26.7733 11.172 26.568C11.3027 26.344 11.368 26.1107 11.368 25.868C11.368 25.6067 11.3027 25.3733 11.172 25.168C11.06 24.944 10.892 24.7667 10.668 24.636C10.4627 24.5053 10.2013 24.44 9.884 24.44H7.364C6.15067 24.44 5.04933 24.2067 4.06 23.74C3.07067 23.2733 2.27733 22.6013 1.68 21.724C1.10133 20.828 0.812 19.7547 0.812 18.504C0.812 17.272 1.092 16.1987 1.652 15.284C2.212 14.3693 2.968 13.66 3.92 13.156C4.872 12.652 5.92667 12.4 7.084 12.4L16.016 12.4V17.132H7.896C7.63467 17.132 7.40133 17.188 7.196 17.3C7.00933 17.412 6.86 17.5613 6.748 17.748C6.65467 17.9347 6.608 18.14 6.608 18.364C6.608 18.588 6.65467 18.7933 6.748 18.98C6.86 19.1667 7.00933 19.3253 7.196 19.456C7.40133 19.568 7.63467 19.624 7.896 19.624H10.612C11.9373 19.624 13.0947 19.876 14.084 20.38C15.0733 20.8653 15.8387 21.5467 16.38 22.424C16.9213 23.3013 17.192 24.3373 17.192 25.532C17.192 26.8947 16.9027 28.0613 16.324 29.032C15.764 30.0027 15.008 30.74 14.056 31.244C13.104 31.748 12.0493 32 10.892 32H1.568ZM27.3168 32C25.8982 32 24.7875 31.5987 23.9848 30.796C23.1822 29.9933 22.7808 28.9013 22.7808 27.52V14.136H28.1568V27.016C28.1568 27.2027 28.2222 27.3613 28.3528 27.492C28.4835 27.604 28.6422 27.66 28.8288 27.66H31.9928V32H27.3168ZM20.5968 21.584V17.496H31.9928V21.584H20.5968ZM63.14 32C61.628 32 60.284 31.7013 59.108 31.104C57.932 30.488 57.008 29.6387 56.336 28.556C55.664 27.4733 55.328 26.2133 55.328 24.776C55.328 23.3387 55.664 22.0787 56.336 20.996C57.008 19.8947 57.932 19.036 59.108 18.42C60.284 17.804 61.628 17.496 63.14 17.496H65.996V21.92H63.616C63.0187 21.92 62.496 22.0507 62.048 22.312C61.6187 22.5547 61.2827 22.8907 61.04 23.32C60.7973 23.7493 60.676 24.2347 60.676 24.776C60.676 25.3173 60.7973 25.812 61.04 26.26C61.2827 26.6893 61.6187 27.0347 62.048 27.296C62.496 27.5387 63.0187 27.66 63.616 27.66H65.996V32L63.14 32ZM70.1813 32V11.56H75.5293V22.844H76.7333L79.6733 17.496H85.7773L82.0533 23.348C83.0053 23.7587 83.7333 24.356 84.2373 25.14C84.76 25.924 85.0213 26.96 85.0213 28.248V32H79.6453V28.248C79.6453 27.8373 79.552 27.4827 79.3653 27.184C79.1973 26.8853 78.9547 26.652 78.6373 26.484C78.3387 26.316 77.9933 26.232 77.6013 26.232H75.5293V32H70.1813Z" fill="#2D2D2D"/>
</g>
<mask id="mask0_769_61" style="mask-type:alpha" maskUnits="userSpaceOnUse" x="34" y="12" width="20" height="20">
<path fill-rule="evenodd" clip-rule="evenodd" d="M54 22C54 27.5228 49.5228 32 44 32C38.4772 32 34 27.5228 34 22C34 16.4772 38.4772 12 44 12C49.5228 12 54 16.4772 54 22ZM36.5668 22.0358C36.9639 21.5395 37.6881 21.4592 38.1844 21.8562L43.2515 25.911L49.4146 16.537C49.7637 16.0059 50.5042 15.8124 51.0686 16.1048C51.6329 16.3972 51.8073 17.0648 51.4581 17.5958L44.5838 28.0517C44.5435 28.1465 44.4898 28.2374 44.4223 28.3218C44.0288 28.8136 43.3139 28.8969 42.8181 28.5118C42.734 28.4608 42.6599 28.401 42.5961 28.3343L36.7463 23.6533C36.2501 23.2562 36.1697 22.532 36.5668 22.0358Z" fill="black"/>
</mask>
<g mask="url(#mask0_769_61)">
<rect x="27.75" y="8.25" width="31.875" height="28.75" fill="#0053AD"/>
</g>
<rect x="93" y="14" width="90" height="18" fill="#0053AD"/>
<path d="M114.132 29.216C113.484 29.216 112.902 29.066 112.386 28.766C111.87 28.466 111.462 28.058 111.162 27.542C110.874 27.014 110.73 26.402 110.73 25.706V19.442C110.73 19.118 110.652 18.824 110.496 18.56C110.34 18.296 110.13 18.086 109.866 17.93C109.602 17.774 109.314 17.696 109.002 17.696C108.69 17.696 108.402 17.774 108.138 17.93C107.886 18.086 107.682 18.296 107.526 18.56C107.382 18.824 107.31 19.118 107.31 19.442V29H105.582V19.676C105.582 19.016 105.726 18.422 106.014 17.894C106.302 17.366 106.704 16.952 107.22 16.652C107.736 16.34 108.33 16.184 109.002 16.184C109.686 16.184 110.286 16.34 110.802 16.652C111.318 16.952 111.72 17.366 112.008 17.894C112.296 18.422 112.44 19.016 112.44 19.676V25.94C112.44 26.276 112.518 26.576 112.674 26.84C112.83 27.092 113.034 27.296 113.286 27.452C113.55 27.608 113.832 27.686 114.132 27.686C114.432 27.686 114.708 27.608 114.96 27.452C115.212 27.296 115.41 27.092 115.554 26.84C115.71 26.576 115.788 26.276 115.788 25.94V19.676C115.788 19.016 115.932 18.422 116.22 17.894C116.52 17.366 116.928 16.952 117.444 16.652C117.96 16.34 118.56 16.184 119.244 16.184C119.916 16.184 120.51 16.34 121.026 16.652C121.542 16.952 121.944 17.366 122.232 17.894C122.52 18.422 122.664 19.016 122.664 19.676V29H120.936V19.442C120.936 19.118 120.858 18.824 120.702 18.56C120.558 18.296 120.354 18.086 120.09 17.93C119.838 17.774 119.556 17.696 119.244 17.696C118.92 17.696 118.626 17.774 118.362 17.93C118.11 18.086 117.906 18.296 117.75 18.56C117.594 18.824 117.516 19.118 117.516 19.442V25.706C117.516 26.402 117.366 27.014 117.066 27.542C116.778 28.058 116.376 28.466 115.86 28.766C115.356 29.066 114.78 29.216 114.132 29.216ZM129.772 29.216C128.884 29.216 128.116 29.006 127.468 28.586C126.82 28.154 126.322 27.572 125.974 26.84C125.626 26.108 125.452 25.298 125.452 24.41C125.452 23.51 125.644 22.7 126.028 21.98C126.412 21.248 126.964 20.672 127.684 20.252C128.404 19.82 129.268 19.604 130.276 19.604C131.248 19.604 132.082 19.814 132.778 20.234C133.474 20.654 134.008 21.224 134.38 21.944C134.764 22.664 134.956 23.468 134.956 24.356V29H133.282V27.128H133.246C133.066 27.476 132.82 27.812 132.508 28.136C132.208 28.448 131.83 28.706 131.374 28.91C130.918 29.114 130.384 29.216 129.772 29.216ZM130.204 27.794C130.804 27.794 131.332 27.65 131.788 27.362C132.256 27.062 132.616 26.654 132.868 26.138C133.132 25.61 133.264 25.022 133.264 24.374C133.264 23.738 133.138 23.168 132.886 22.664C132.646 22.16 132.298 21.764 131.842 21.476C131.386 21.176 130.852 21.026 130.24 21.026C129.592 21.026 129.034 21.176 128.566 21.476C128.11 21.776 127.756 22.184 127.504 22.7C127.264 23.204 127.144 23.78 127.144 24.428C127.144 25.052 127.264 25.622 127.504 26.138C127.744 26.642 128.092 27.044 128.548 27.344C129.004 27.644 129.556 27.794 130.204 27.794ZM138.186 29V27.578H142.578C142.866 27.578 143.112 27.518 143.316 27.398C143.532 27.266 143.694 27.098 143.802 26.894C143.91 26.69 143.964 26.474 143.964 26.246C143.964 26.03 143.916 25.832 143.82 25.652C143.724 25.46 143.574 25.31 143.37 25.202C143.178 25.082 142.944 25.022 142.668 25.022H140.814C140.226 25.022 139.71 24.926 139.266 24.734C138.834 24.53 138.492 24.236 138.24 23.852C138 23.468 137.88 23 137.88 22.448C137.88 21.98 137.994 21.548 138.222 21.152C138.45 20.756 138.768 20.438 139.176 20.198C139.584 19.946 140.052 19.82 140.58 19.82H144.81V21.242H140.742C140.37 21.242 140.076 21.356 139.86 21.584C139.644 21.812 139.536 22.082 139.536 22.394C139.536 22.694 139.644 22.958 139.86 23.186C140.088 23.402 140.406 23.51 140.814 23.51H142.578C143.238 23.51 143.79 23.618 144.234 23.834C144.69 24.038 145.032 24.338 145.26 24.734C145.5 25.13 145.62 25.616 145.62 26.192C145.62 26.684 145.5 27.146 145.26 27.578C145.02 27.998 144.684 28.34 144.252 28.604C143.832 28.868 143.34 29 142.776 29H138.186ZM151.393 29C150.577 29 149.935 28.766 149.467 28.298C149.011 27.83 148.783 27.194 148.783 26.39V17.516H150.439V26.282C150.439 26.678 150.547 26.996 150.763 27.236C150.991 27.464 151.303 27.578 151.699 27.578H153.553V29H151.393ZM147.199 21.242V19.82H153.589V21.242H147.199ZM160.692 29C159.684 29 158.79 28.814 158.01 28.442C157.23 28.058 156.618 27.524 156.174 26.84C155.742 26.144 155.526 25.334 155.526 24.41C155.526 23.498 155.712 22.682 156.084 21.962C156.456 21.23 156.972 20.654 157.632 20.234C158.292 19.814 159.06 19.604 159.936 19.604C160.884 19.604 161.67 19.808 162.294 20.216C162.93 20.624 163.404 21.176 163.716 21.872C164.028 22.556 164.184 23.324 164.184 24.176C164.184 24.308 164.178 24.446 164.166 24.59C164.166 24.734 164.154 24.86 164.13 24.968H157.29C157.35 25.532 157.536 26.012 157.848 26.408C158.16 26.792 158.556 27.086 159.036 27.29C159.528 27.482 160.068 27.578 160.656 27.578H163.05V29H160.692ZM157.272 23.798H162.51C162.51 23.57 162.486 23.33 162.438 23.078C162.39 22.814 162.306 22.562 162.186 22.322C162.066 22.07 161.904 21.848 161.7 21.656C161.508 21.452 161.262 21.29 160.962 21.17C160.674 21.05 160.332 20.99 159.936 20.99C159.516 20.99 159.144 21.074 158.82 21.242C158.508 21.398 158.238 21.614 158.01 21.89C157.782 22.154 157.608 22.454 157.488 22.79C157.368 23.126 157.296 23.462 157.272 23.798ZM166.961 29V22.43C166.961 21.614 167.189 20.978 167.645 20.522C168.113 20.054 168.755 19.82 169.571 19.82H171.461V21.242H169.877C169.481 21.242 169.169 21.356 168.941 21.584C168.725 21.812 168.617 22.13 168.617 22.538V29H166.961Z" fill="white"/>
<defs>
<filter id="filter0_i_769_61" x="0.812012" y="11.5601" width="84.9653" height="24.4399" filterUnits="userSpaceOnUse" color-interpolation-filters="sRGB">
<feFlood flood-opacity="0" result="BackgroundImageFix"/>
<feBlend mode="normal" in="SourceGraphic" in2="BackgroundImageFix" result="shape"/>
<feColorMatrix in="SourceAlpha" type="matrix" values="0 0 0 0 0 0 0 0 0 0 0 0 0 0 0 0 0 0 127 0" result="hardAlpha"/>
<feOffset dy="4"/>
<feGaussianBlur stdDeviation="2"/>
<feComposite in2="hardAlpha" operator="arithmetic" k2="-1" k3="1"/>
<feColorMatrix type="matrix" values="0 0 0 0 0 0 0 0 0 0 0 0 0 0 0 0 0 0 0.25 0"/>
<feBlend mode="normal" in2="shape" result="effect1_innerShadow_769_61"/>
</filter>
</defs>
</svg>
